# xmcd CD database file
# Copyright (C) 1993-1998 Ti Kan
#
# Track frame offsets:
#	150
#	10598
#	21108
#	33853
#	46766
#	58306
#	72381
#	83156
#	97452
#	108400
#
# Disc length: 1606 seconds
#
# Revision: 1
# Processed by: cddbd v1.4b41PL1 Copyright (c) Steve Scherf et al.
# Submitted via: CDValet v3.31 - Copyright (c) 1997 Greg Leichner
#
DISCID=7e06440a
DTITLE=Ray Charles - Blues is my Middle Name
DYEAR=1900
DGENRE=
TTITLE0=Gong Down Slow
TTITLE1=Now She's Gone
TTITLE2=Rocking Chair Blues
TTITLE3=Can Anyone Ask for More
TTITLE4=Let's Have a Ball
TTITLE5=This Love of Mine
TTITLE6=Sitting on Top of the World
TTITLE7=Blues is my Middle Name
TTITLE8=I Wonder Who's Kissing Her Now
TTITLE9=See See Rider
EXTD=
EXTT0=
EXTT1=
EXTT2=
EXTT3=
EXTT4=
EXTT5=
EXTT6=
EXTT7=
EXTT8=
EXTT9=
PLAYORDER=
